<mxfile host="app.diagrams.net" modified="2023-12-12T11:39:55.854Z" agent="Mozilla/5.0 (Windows NT 10.0; Win64; x64) AppleWebKit/537.36 (KHTML, like Gecko) Chrome/120.0.0.0 Safari/537.36" etag="48XsUXRRTKvpxSVKycRz" version="22.1.7" type="github">
  <diagram name="Page-1" id="x_zVUixFZ8YYlTAziIE7">
    <mxGraphModel dx="428" dy="735" grid="1" gridSize="10" guides="1" tooltips="1" connect="1" arrows="1" fold="1" page="1" pageScale="1" pageWidth="850" pageHeight="1100" math="0" shadow="0">
      <root>
        <mxCell id="0" />
        <mxCell id="1" parent="0" />
        <mxCell id="6Eu5JAQXPxXk4EKjPAYG-20" style="edgeStyle=orthogonalEdgeStyle;rounded=0;orthogonalLoop=1;jettySize=auto;html=1;entryX=0;entryY=0.5;entryDx=0;entryDy=0;" edge="1" parent="1" source="6Eu5JAQXPxXk4EKjPAYG-1" target="6Eu5JAQXPxXk4EKjPAYG-5">
          <mxGeometry relative="1" as="geometry" />
        </mxCell>
        <mxCell id="6Eu5JAQXPxXk4EKjPAYG-1" value="block" style="html=1;whiteSpace=wrap;" vertex="1" parent="1">
          <mxGeometry x="415" y="430" width="120" height="50" as="geometry" />
        </mxCell>
        <mxCell id="6Eu5JAQXPxXk4EKjPAYG-11" style="edgeStyle=orthogonalEdgeStyle;rounded=0;orthogonalLoop=1;jettySize=auto;html=1;entryX=0.5;entryY=1;entryDx=0;entryDy=0;" edge="1" parent="1" source="6Eu5JAQXPxXk4EKjPAYG-2" target="6Eu5JAQXPxXk4EKjPAYG-1">
          <mxGeometry relative="1" as="geometry" />
        </mxCell>
        <mxCell id="6Eu5JAQXPxXk4EKjPAYG-2" value="board" style="html=1;whiteSpace=wrap;" vertex="1" parent="1">
          <mxGeometry x="200" y="560" width="110" height="50" as="geometry" />
        </mxCell>
        <mxCell id="6Eu5JAQXPxXk4EKjPAYG-10" style="edgeStyle=orthogonalEdgeStyle;rounded=0;orthogonalLoop=1;jettySize=auto;html=1;exitX=1;exitY=0.5;exitDx=0;exitDy=0;entryX=0;entryY=0.5;entryDx=0;entryDy=0;" edge="1" parent="1" source="6Eu5JAQXPxXk4EKjPAYG-3" target="6Eu5JAQXPxXk4EKjPAYG-1">
          <mxGeometry relative="1" as="geometry" />
        </mxCell>
        <mxCell id="6Eu5JAQXPxXk4EKjPAYG-13" style="edgeStyle=orthogonalEdgeStyle;rounded=0;orthogonalLoop=1;jettySize=auto;html=1;entryX=0.5;entryY=0;entryDx=0;entryDy=0;" edge="1" parent="1" source="6Eu5JAQXPxXk4EKjPAYG-3" target="6Eu5JAQXPxXk4EKjPAYG-2">
          <mxGeometry relative="1" as="geometry" />
        </mxCell>
        <mxCell id="6Eu5JAQXPxXk4EKjPAYG-3" value="brick" style="html=1;whiteSpace=wrap;" vertex="1" parent="1">
          <mxGeometry x="200" y="430" width="110" height="50" as="geometry" />
        </mxCell>
        <mxCell id="6Eu5JAQXPxXk4EKjPAYG-17" style="edgeStyle=orthogonalEdgeStyle;rounded=0;orthogonalLoop=1;jettySize=auto;html=1;entryX=0;entryY=0.5;entryDx=0;entryDy=0;" edge="1" parent="1" source="6Eu5JAQXPxXk4EKjPAYG-4" target="6Eu5JAQXPxXk4EKjPAYG-2">
          <mxGeometry relative="1" as="geometry" />
        </mxCell>
        <mxCell id="6Eu5JAQXPxXk4EKjPAYG-18" style="edgeStyle=orthogonalEdgeStyle;rounded=0;orthogonalLoop=1;jettySize=auto;html=1;entryX=0;entryY=0.5;entryDx=0;entryDy=0;" edge="1" parent="1" source="6Eu5JAQXPxXk4EKjPAYG-4" target="6Eu5JAQXPxXk4EKjPAYG-3">
          <mxGeometry relative="1" as="geometry" />
        </mxCell>
        <mxCell id="6Eu5JAQXPxXk4EKjPAYG-4" value="console" style="html=1;whiteSpace=wrap;" vertex="1" parent="1">
          <mxGeometry x="20" y="490" width="110" height="50" as="geometry" />
        </mxCell>
        <mxCell id="6Eu5JAQXPxXk4EKjPAYG-21" style="edgeStyle=orthogonalEdgeStyle;rounded=0;orthogonalLoop=1;jettySize=auto;html=1;" edge="1" parent="1" source="6Eu5JAQXPxXk4EKjPAYG-5" target="6Eu5JAQXPxXk4EKjPAYG-22">
          <mxGeometry relative="1" as="geometry">
            <mxPoint x="705" y="630" as="targetPoint" />
          </mxGeometry>
        </mxCell>
        <mxCell id="6Eu5JAQXPxXk4EKjPAYG-5" value="game" style="html=1;whiteSpace=wrap;" vertex="1" parent="1">
          <mxGeometry x="600" y="430" width="110" height="50" as="geometry" />
        </mxCell>
        <mxCell id="6Eu5JAQXPxXk4EKjPAYG-12" style="edgeStyle=orthogonalEdgeStyle;rounded=0;orthogonalLoop=1;jettySize=auto;html=1;entryX=0.5;entryY=0;entryDx=0;entryDy=0;" edge="1" parent="1" source="6Eu5JAQXPxXk4EKjPAYG-6" target="6Eu5JAQXPxXk4EKjPAYG-1">
          <mxGeometry relative="1" as="geometry" />
        </mxCell>
        <mxCell id="6Eu5JAQXPxXk4EKjPAYG-6" value="player" style="html=1;whiteSpace=wrap;" vertex="1" parent="1">
          <mxGeometry x="420" y="310" width="110" height="50" as="geometry" />
        </mxCell>
        <mxCell id="6Eu5JAQXPxXk4EKjPAYG-22" value="main" style="html=1;whiteSpace=wrap;" vertex="1" parent="1">
          <mxGeometry x="600" y="560" width="110" height="50" as="geometry" />
        </mxCell>
      </root>
    </mxGraphModel>
  </diagram>
</mxfile>
